# ProBuilder 4.4.0
# https://unity3d.com/unity/features/worldbuilding/probuilder
# 7/3/2020 12:48:25 PM

mtllib ./Easel.mtl
o Easel

g Easel
v 0.06814644 -0.627378 -0.3510828
v 0.06814634 -0.6374637 -0.3134422
v 0.06814495 1.310657 0.168211
v 0.06814485 1.300572 0.2058516
v -0.05964897 -0.6374637 -0.3134422
v -0.05965046 1.300572 0.2058516
v -0.05964886 -0.627378 -0.3510828
v -0.05965035 1.310657 0.168211
v 0.6510442 -1.310657 -0.5352268
v 0.6510708 -1.310503 -0.4962587
v 0.3235297 0.5928355 -0.01952553
v 0.3209192 0.5830938 0.01811504
v 0.5232781 -1.309715 -0.4961748
v 0.1939137 0.5962054 0.01270008
v 0.5232517 -1.309869 -0.5351439
v 0.1965242 0.6059473 -0.02494049
v 0.6597934 -0.2970574 -0.217514
v 0.6624037 -0.3067994 -0.1798735
v -0.659969 -0.2970574 -0.2175179
v -0.6625795 -0.3067994 -0.1798773
v 0.6943526 -0.4260341 -0.2129478
v -0.6945281 -0.4260341 -0.2129517
v 0.6917423 -0.4162921 -0.2505884
v -0.6919177 -0.4162921 -0.2505922
v 0.4313051 0.4854016 -0.01370811
v 0.4339153 0.4756597 0.02393246
v -0.4314823 0.4854016 -0.01371002
v -0.4340928 0.4756595 0.02393055
v 0.4658642 0.3564249 -0.009141922
v -0.4660415 0.3564249 -0.009144783
v 0.4632539 0.3661671 -0.04678249
v -0.463431 0.366167 -0.04678535
v -0.5198182 -1.309538 -0.5379992
v -0.5181361 -1.309616 -0.4990664
v -0.1954497 0.6063085 -0.02484512
v -0.1928399 0.5965664 0.01279545
v -0.6458127 -1.309301 -0.4935513
v -0.3198263 0.5832522 0.01815605
v -0.6474943 -1.309223 -0.5324821
v -0.3224362 0.5929942 -0.01948452
v 0.6596187 -0.2971046 -0.3008652
v 0.6622555 -0.3068395 -0.2632246
v -0.6599689 -0.2970576 -0.300869
v -0.6625793 -0.3067997 -0.2632284
v 0.6945281 -0.425987 -0.2962999
v -0.6945279 -0.4260344 -0.2963037
v 0.6918914 -0.4162521 -0.3339405
v -0.6919174 -0.4162923 -0.3339443
v 0.06525303 -1.304526 0.4990349
v 0.06525291 -1.305026 0.5380001
v 0.06525431 0.6025489 -0.01959801
v 0.0652542 0.6126348 0.01804256
v -0.06254225 -1.305026 0.5380001
v -0.06254095 0.6126348 0.01804256
v -0.06254213 -1.304526 0.4990339
v -0.06254085 0.6025489 -0.01959801

vt 0.5 -0.5
vt -0.5 -0.5
vt 0.5 0.5
vt -0.5 0.5
vt 0.521696 -0.5090332
vt -0.442975 -0.5038688
vt 0.3814289 0.4812732
vt -0.6159858 0.4929037
vt 0.5103521 -0.422511
vt 0.227515 -0.419071
vt -0.209388 0.5916129
vt -0.4910595 0.5599445
vt 0.426475 -0.483397
vt -0.5381449 -0.4885714
vt 0.381393 0.5180721
vt -0.6159694 0.5063803
vt -0.2113383 -0.4586716
vt -0.4883997 -0.4620093
vt 0.4864304 0.5533776
vt 0.2111075 0.5292022
vt -0.3887183 0.4846889
vt 0.609544 0.4655126
vt -0.6094698 -0.4819804
vt 0.3887942 -0.5011564
vt 0.5344037 -0.4850874
vt -0.4437986 -0.4715924
vt 0.5445868 0.5002809
vt -0.4336148 0.5137763
vt 0.4833499 -0.5047379
vt -0.5321615 -0.4878694
vt 0.5017174 0.48591
vt -0.5137213 0.5066973
vt -0.3633073 -0.7574341
vt -0.742147 0.4197056
vt 0.7467322 -0.4276572
vt 0.4214242 0.7653861
vt 0.5025995 -0.5114434
vt -0.5137866 -0.5283296
vt 0.4832848 0.5302876
vt -0.5330286 0.5094856
vt 0.7724462 0.4180906
vt 0.3945821 -0.7554843
vt -0.3900727 0.7634584
vt -0.7142515 -0.4260658
vt -0.5058798 0.4702206
vt 0.5150478 0.4197111
vt -0.5130806 -0.444128
vt 0.507847 -0.4946375
vt 0.5130811 -0.444128
vt -0.5078465 -0.4946375
vt 0.5058804 0.4702206
vt -0.5150473 0.4197111
vt 0.4833766 -0.4967574
vt -0.5310144 -0.4819009
vt 0.5005069 0.4789492
vt -0.5137814 0.4997095
vt -0.3433713 -0.7634168
vt -0.75274 0.4131984
vt 0.7440659 -0.4256348
vt 0.4147466 0.7758501
vt 0.5018281 -0.5174826
vt -0.5138134 -0.5323638
vt 0.4833448 0.535313
vt -0.5321931 0.5145339
vt 0.7824454 0.4108059
vt 0.3745537 -0.7604563
vt -0.3833948 0.7729412
vt -0.7108985 -0.4232912
vt -0.5053282 0.4641962
vt 0.515552 0.4136581
vt -0.5125203 -0.4504943
vt 0.5083598 -0.5010324
vt 0.5125207 -0.4504948
vt -0.5083604 -0.5010326
vt 0.5053286 0.4641957
vt -0.5155518 0.4136579
vt 0.6090551 -0.499012
vt -0.356469 -0.5028734
vt 0.6046012 0.5050979
vt -0.3930992 0.5027838
vt -0.2769513 -0.4835663
vt -0.5663404 -0.4857208
vt 0.4360473 0.4979971
vt 0.1446476 0.5181441
vt 0.4871158 -0.5225759
vt -0.4700972 -0.5187798
vt 0.6094416 0.4772949
vt -0.3796917 0.4795358
vt 0.4307628 -0.5462824
vt 0.1453788 -0.5441766
vt -0.26934 0.4597321
vt -0.556751 0.4356769
vt -0.6094791 0.4819825
vt 0.3887852 0.5011576
vt -0.3887277 -0.4846935
vt 0.6095366 -0.4655182
vt 0.4841461 -0.5092134
vt -0.4928976 -0.5092287
vt 0.6072439 0.4789023
vt -0.3698208 0.4788904
vt 0.4827041 -0.5046096
vt 0.5015748 0.4860854
vt -0.5134544 0.5070539
vt -0.3635356 -0.7558819
vt -0.7403993 0.4202766
vt 0.7456271 -0.4285866
vt 0.42361 0.7597823
vt 0.5024552 -0.5113976
vt -0.5140648 -0.5284581
vt 0.4832582 0.5306441
vt -0.5332369 0.5096464
vt 0.7712077 0.418293
vt 0.3953525 -0.7542579
vt -0.3904865 0.7618836
vt -0.7113985 -0.4231257
vt -0.5077624 -0.4944053
vt 0.5057623 0.4697251
vt -0.6091585 -0.4974095
vt -0.6517248 -0.49233
vt 0.5000372 0.4963704
vt 0.461936 0.5071799
vt 0.5 -0.5833391
vt -0.5 -0.5833391
vt 0.5 0.4184977
vt -0.5 0.4184977
vt 0.6517248 -0.4923299
vt 0.6091585 -0.4974094
vt -0.461936 0.5071803
vt -0.5000372 0.4963708
vt 0.5 -0.4176748
vt -0.5 -0.4176748
vt 0.5 0.5853426
vt -0.5 0.5853426
vt -0.5 0.5
vt -0.5 -0.5
vt 0.5 -0.5
vt 0.3081322 -0.4999992
vt -0.6544209 -0.4999992
vt 0.3081322 0.4999997
vt -0.6544209 0.4999997

vn 1 2.458566E-08 2.77775E-06
vn 0.7071065 0.6830127 0.1830136
vn 0 -0.8660253 0.5000002
vn 0 -0.2588185 0.965926
vn -1 -2.458566E-08 -2.77775E-06
vn 0 -0.5000002 -0.8660253
vn 0 0.2588185 -0.965926
vn 0 0.9659262 0.2588176
vn 0.9854565 0.1699224 -0.001346994
vn 0.9862757 0.1566929 0.05203396
vn 0.6789328 0.7080041 0.1943721
vn 0.6779386 0.6988997 0.2279003
vn -0.004491189 -0.7932283 0.6089078
vn -0.02573411 -0.7943108 0.6069663
vn -0.03485018 -0.2655098 0.9634781
vn -0.06867632 -0.2684129 0.9608528
vn -0.9853332 -0.170636 0.001345652
vn -0.9849699 -0.1553566 -0.05159631
vn -0.9846066 -0.1400772 -0.1045383
vn -0.004281765 -0.6108621 -0.7917255
vn 0.02383597 -0.6082407 -0.7933947
vn 0.0349995 0.264867 -0.9636496
vn 0.06899548 0.2719159 -0.9598445
vn 0.08851026 0.9627963 0.2553219
vn -7.24224E-07 0.9681016 0.2505582
vn -0.6107681 0.7757983 0.1584276
vn 0.7079385 -0.006212958 0.7062467
vn -2.71048E-06 -0.2672959 0.9636145
vn 6.881866E-07 -0.9681012 -0.2505596
vn 0.6605471 0.3597829 -0.6589642
vn 2.72096E-06 0.267296 -0.9636145
vn -0.965926 0.2588185 -4.300702E-06
vn 0.9868885 -0.1555851 -0.04294693
vn 0.9862553 -0.147852 -0.07375864
vn 0.731482 0.6655201 0.148381
vn 0.7304302 0.6717793 0.123224
vn 0.02415609 -0.7960981 0.6046853
vn 0.03293484 -0.797055 0.603008
vn 0.05497354 -0.2685658 0.9616914
vn 0.06898454 -0.2714411 0.9599797
vn -0.9864563 0.1583076 0.04292661
vn -0.9855332 0.1491871 0.07372322
vn -0.98461 0.1400666 0.1045198
vn -0.03587492 -0.6047234 -0.7956272
vn -0.04737616 -0.6042822 -0.7953606
vn -0.05485721 0.2678463 -0.9618986
vn -0.06875456 0.2689599 -0.9606943
vn -0.09014761 0.962625 0.2553949
vn 3.37794E-05 0.968146 0.2503864
vn 0.7077033 -0.004432981 0.7064959
vn 0.7076968 -0.00436584 0.7065028
vn 3.371454E-05 -0.9681449 -0.2503908
vn 0.6598306 0.3615786 -0.658699
vn 0.707107 0.6830125 -0.1830127
vn 0 -0.6126654 0.7903424
vn 0 0.2616926 0.9651513
vn 4.569803E-06 -0.7905735 -0.6123671
vn 3.600494E-06 -0.2624208 -0.9649535
vn 0 0.965925 -0.2588219

usemtl Brown
f 11/7/11 12/8/12 10/6/10 9/5/9
f 12/11/15 14/12/16 13/10/14 10/9/13
f 14/15/18 16/16/19 15/14/18 13/13/17
f 16/19/22 11/20/23 9/18/21 15/17/20
f 16/23/24 14/24/24 12/22/12 11/21/11
f 9/27/21 10/28/13 13/26/14 15/25/20
f 35/79/35 36/80/36 34/78/34 33/77/33
f 36/83/39 38/84/40 37/82/38 34/81/37
f 38/87/42 40/88/43 39/86/42 37/85/41
f 40/91/46 35/92/47 33/90/45 39/89/44
f 40/95/48 38/96/48 36/94/36 35/93/35
f 33/99/45 34/100/37 37/98/38 39/97/44
f 51/120/54 52/121/54 50/119/1 49/118/1
f 52/124/56 54/125/56 53/123/55 50/122/55
f 54/128/5 56/129/5 55/127/5 53/126/5
f 56/132/58 51/133/58 49/131/57 55/130/57
f 56/135/59 54/136/59 52/3/54 51/134/54
f 49/139/57 50/140/55 53/138/55 55/137/57

usemtl DarkBrown
f 3/3/2 4/4/2 2/2/1 1/1/1
f 4/3/4 6/4/4 5/2/3 2/1/3
f 6/3/5 8/4/5 7/2/5 5/1/5
f 8/3/7 3/4/7 1/2/6 7/1/6
f 8/2/8 6/1/8 4/3/2 3/4/2
f 1/3/6 2/4/3 5/2/3 7/1/6
f 19/31/26 20/32/26 18/30/25 17/29/25
f 20/35/28 22/36/28 21/34/27 18/33/27
f 22/39/29 24/40/29 23/38/29 21/37/29
f 24/43/31 19/44/31 17/42/30 23/41/30
f 24/47/32 22/48/32 20/46/26 19/45/26
f 17/51/30 18/52/27 21/50/27 23/49/30
f 27/55/26 28/56/26 26/54/25 25/53/25
f 28/59/28 30/60/28 29/58/27 26/57/27
f 30/63/29 32/64/29 31/62/29 29/61/29
f 32/67/31 27/68/31 25/66/30 31/65/30
f 32/71/32 30/72/32 28/70/26 27/69/26
f 25/75/30 26/76/27 29/74/27 31/73/30
f 43/102/26 44/103/26 42/30/49 41/101/49
f 44/106/28 46/107/28 45/105/51 42/104/50
f 46/110/52 48/111/29 47/109/52 45/108/52
f 48/114/31 43/115/31 41/113/53 47/112/53
f 48/47/32 46/48/32 44/46/26 43/45/26
f 41/117/53 42/52/50 45/116/51 47/49/53

