# ProBuilder 4.2.3
# https://unity3d.com/unity/features/worldbuilding/probuilder
# 6/25/2020 7:44:44 PM

mtllib ./Painting_01.mtl
o Painting_01

g Painting
v 0.1337891 0.8662109 -0.7421294
v 0.1337891 0.8662109 -0.7801004
v 0.1337891 1.866211 -0.7421294
v 0.1337891 1.866211 -0.7801004
v 0.8451957 0.8662109 -0.7801003
v 0.8451957 1.866211 -0.7801003
v 0.8451955 0.8662109 -0.7421293
v 0.8451955 1.866211 -0.7421293
v 0.8095968 0.9138885 -0.7538372
v 0.1693897 0.9138885 -0.7538373
v 0.8095968 1.818533 -0.7538372
v 0.1693897 1.818533 -0.7538373
v 0.8444603 0.866791 -0.7417785
v 0.1345247 0.8667912 -0.7417785
v 0.8444603 1.865631 -0.7417785
v 0.1345247 1.865631 -0.7417785
v 0.8277935 0.8886449 -0.730718
v 0.1511921 0.8886449 -0.7307181
v 0.8277935 1.843777 -0.730718
v 0.1511921 1.843777 -0.7307181

vt -0.099 0
vt -0.1 0
vt -0.099 1
vt -0.1 1
vt 6.131365E-10 0
vt -0.7114065 0
vt 6.131365E-10 1
vt -0.7114065 1
vt 0.1 0
vt 0.09900001 0
vt 0.1 1
vt 0.09900001 1
vt 0.5788071 0.1325993
vt 0.1325993 0.1325993
vt 0.5788071 0.8674008
vt 0.1325993 0.8674008
vt 0.099 0
vt 0.09900001 -0.7114063
vt 0.1 -0.7114063
vt -0.09900001 -0.7114063
vt -0.1 -0.7114063
vt 0.7106712 -0.006881948
vt 0.0007356014 -0.006881666
vt 0.7114064 -0.007559762
vt 1.731877E-08 -0.00755979
vt 0.6483762 0
vt 0.6483762 1
vt 0.6475617 0.0005799867
vt 0.6475617 0.99942
vt -0.006290201 1
vt -0.006290201 0
vt -0.005475206 0.9994197
vt -0.005475206 0.0005802754
vt 0.0007355977 0.8625872
vt 0.7106712 0.8625875
vt 1.729822E-08 0.8632653
vt 0.7114064 0.8632653
vt 0.6940044 0.01857228
vt 0.01740306 0.0185723
vt 0.7106712 -0.005921213
vt 0.0007356018 -0.005920929
vt 0.580026 0.9775659
vt 0.580026 0.02243401
vt 0.6000289 0.99942
vt 0.6000289 0.0005800109
vt 0.01273247 0.02243402
vt 0.01273247 0.9775659
vt -0.00727094 0.0005802754
vt -0.00727094 0.9994197
vt 0.01740306 0.8736649
vt 0.6940044 0.873665
vt 0.0007356018 0.8981583
vt 0.7106712 0.8981586
vt 0.6758077 0.05293463
vt 0.03560061 0.05293463
vt 0.3972968 0.9523222
vt 0.3972968 0.04767752
vt 0.4267181 0.9775659
vt 0.4267181 0.02243401
vt 0.04269875 0.04767752
vt 0.04269875 0.9523222
vt 0.01327686 0.02243402
vt 0.01327686 0.9775659
vt 0.03560061 0.6845221
vt 0.6758077 0.6845221
vt 0.01740306 0.7187527
vt 0.6940044 0.7187527

vn -0.7071068 -0.7071068 2.774936E-07
vn -1 0 3.924351E-07
vn 8.255368E-08 0 -1
vn 1 0 1.688947E-06
vn -9.302431E-08 0 1
vn 0 1 0
vn 0 -1 0
vn -1.410053E-07 -0.5174608 0.855707
vn 0.4305701 0 0.9025573
vn -0.4305601 0 0.9025621
vn -1.220049E-07 0.5174788 0.8556961
vn -7.943387E-08 -0.451568 0.8922368
vn -0.2961065 -0.2418272 0.9240351
vn 0.5529429 -1.624898E-09 0.8332193
vn -0.552925 -2.73319E-10 0.8332313
vn -7.074692E-08 0.451567 0.8922374
vn -6.860127E-08 0.6753959 0.7374554
vn -0.7857969 0 0.6184848
vn 0.785782 0 0.6185037
vn -6.860142E-08 -0.6753942 0.737457

usemtl IE_Example_Black_Matte
f 3/3/2 4/4/2 2/2/1 1/1/1
f 4/7/3 6/8/3 5/6/3 2/5/3
f 6/11/4 8/12/4 7/10/4 5/9/4
f 8/18/6 6/19/6 4/9/6 3/17/6
f 1/1/1 2/2/1 5/21/7 7/20/7
f 1/25/8 7/24/8 13/22/8 14/23/8
f 15/29/9 13/28/9 7/26/9 8/27/9
f 14/33/10 16/32/10 3/30/10 1/31/10
f 8/37/11 3/36/11 16/34/11 15/35/11
f 14/41/13 13/40/12 17/38/12 18/39/13
f 13/45/14 15/44/14 19/42/14 17/43/14
f 16/49/15 14/48/13 18/46/13 20/47/15
f 15/53/16 16/52/16 20/50/16 19/51/16
f 18/39/17 17/38/17 9/54/17 10/55/17
f 17/59/18 19/58/18 11/56/18 9/57/18
f 20/63/19 18/62/19 10/60/19 12/61/19
f 19/67/20 20/66/20 12/64/20 11/65/20

usemtl 01
f 11/15/5 12/16/5 10/14/5 9/13/5

